HIERARCHY
ROOT root
{
	OFFSET	0	13.1	24.9
	CHANNELS 6  Xposition Yposition Zposition Xrotation Yrotation Zrotation
	JOINT spine_1
	{
		OFFSET	0	9.99999	0
		CHANNELS 3  Xrotation Yrotation Zrotation
		JOINT spine_2
		{
			OFFSET	0	112	-10
			CHANNELS 3  Xrotation Yrotation Zrotation
			JOINT spine_3
			{
				OFFSET	0	206.5	19.3
				CHANNELS 3  Xrotation Yrotation Zrotation
				JOINT spine_4
				{
					OFFSET	0	110.4	14.6
					CHANNELS 3  Xrotation Yrotation Zrotation
					JOINT neck_1
					{
						OFFSET	0	71.8	-50.3
						CHANNELS 3  Xrotation Yrotation Zrotation
						JOINT neck_2
						{
							OFFSET	0	86.2	-25.8
							CHANNELS 3  Xrotation Yrotation Zrotation
							JOINT head_ee
							{
								OFFSET	0	179.8	-8.7
								CHANNELS 3  Xrotation Yrotation Zrotation
								End Site
								{
									OFFSET	1	0	0
								}
							}
						}
					}
					JOINT left_clavicle
					{
						OFFSET	-43.2	22.4	-70.8
						CHANNELS 3  Xrotation Yrotation Zrotation
						JOINT left_shoulder
						{
							OFFSET	-93.9	-5.79999	48.7
							CHANNELS 3  Xrotation Yrotation Zrotation
							JOINT left_elbow
							{
								OFFSET	-291.4	-30.8	15.2
								CHANNELS 3  Xrotation Yrotation Zrotation
								JOINT left_lowarm_twist
								{
									OFFSET	-110.7	-3.89999	13.6
									CHANNELS 3  Xrotation Yrotation Zrotation
									JOINT left_hand
									{
										OFFSET	-110.7	-3.89999	13.6
										CHANNELS 3  Xrotation Yrotation Zrotation
										JOINT left_ee
										{
											OFFSET	-80.8	-5.10001	12.1
											CHANNELS 3  Xrotation Yrotation Zrotation
											End Site
											{
												OFFSET	1	0	0
											}
										}
									}
								}
							}
						}
					}
					JOINT right_clavicle
					{
						OFFSET	43.2	22.4	-70.8
						CHANNELS 3  Xrotation Yrotation Zrotation
						JOINT right_shoulder
						{
							OFFSET	93.9	-5.79999	48.7
							CHANNELS 3  Xrotation Yrotation Zrotation
							JOINT right_elbow
							{
								OFFSET	291.4	-30.8	15.2
								CHANNELS 3  Xrotation Yrotation Zrotation
								JOINT right_lowarm_twist
								{
									OFFSET	110.7	-3.89999	13.6
									CHANNELS 3  Xrotation Yrotation Zrotation
									JOINT right_hand
									{
										OFFSET	110.7	-3.89999	13.6
										CHANNELS 3  Xrotation Yrotation Zrotation
										JOINT right_ee
										{
											OFFSET	80.8	-5.10001	12.1
											CHANNELS 3  Xrotation Yrotation Zrotation
											End Site
											{
												OFFSET	1	0	0
											}
										}
									}
								}
							}
						}
					}
				}
			}
		}
	}
	JOINT left_hip
	{
		OFFSET	-82.8	-127.5	0.300001
		CHANNELS 3  Xrotation Yrotation Zrotation
		JOINT left_knee
		{
			OFFSET	-28.2	-396.7	2.2
			CHANNELS 3  Xrotation Yrotation Zrotation
			JOINT left_ankle
			{
				OFFSET	-11.7	-411.3	35.4
				CHANNELS 3  Xrotation Yrotation Zrotation
				JOINT left_toes
				{
					OFFSET	0	-60	-88.6
					CHANNELS 3  Xrotation Yrotation Zrotation
					JOINT left_foot_ee
					{
						OFFSET	-22.5	-16.5	-42.2
						CHANNELS 3  Xrotation Yrotation Zrotation
						End Site
						{
							OFFSET	1	0	0
						}
					}
				}
			}
		}
	}
	JOINT right_hip
	{
		OFFSET	82.8	-127.5	0.300001
		CHANNELS 3  Xrotation Yrotation Zrotation
		JOINT right_knee
		{
			OFFSET	28.2	-396.7	2.2
			CHANNELS 3  Xrotation Yrotation Zrotation
			JOINT right_ankle
			{
				OFFSET	11.7	-411.3	35.4
				CHANNELS 3  Xrotation Yrotation Zrotation
				JOINT right_toes
				{
					OFFSET	0	-60	-88.6
					CHANNELS 3  Xrotation Yrotation Zrotation
					JOINT right_foot_ee
					{
						OFFSET	22.5	-16.5	-42.2
						CHANNELS 3  Xrotation Yrotation Zrotation
						End Site
						{
							OFFSET	1	0	0
						}
					}
				}
			}
		}
	}
}
MOTION
Frames: 15
Frame Time: 0.02
1372.05 701.618 -1475.22 -0.225991031594 39.845159399 4.95448230736 -3.77514 -0.0937456 -2.18036 -3.7725 0.0451527 -2.18191 -3.77073 0.641597 -2.08597 -3.77667 0.304186 -2.16108 8.78821 9.40242 1.0942 9.09182 14.613 1.41916 -0.0 0.0 -0.0 10.9733 -5.23807 21.9228 -1.21639 -33.4187 46.5815 2.8105 -54.3014 1.44156 9.81693 0.241073 -1.22932 -0.516202 -13.7065 -9.33589 -0.0 0.0 -0.0 10.1349 -9.55637 -19.1604 -39.5248 33.4005 -41.7991 0.45374 12.668 -0.0503662 39.2548 0.311069 4.90814 1.32283 12.0942 -3.7766 0.0 0.0 0.0 2.77203 44.6481 -18.8826 -23.8615 0.229845 3.62813 12.0418 -28.1892 -2.0977 32.8037 -0.0 -0.0 -0.0 0.0 -0.0 24.0959 4.25437 -6.00303 3.65122 0.167485 0.535097 -23.5992 -6.35372 -3.55255 15.9287 -0.0 -0.0 0.0 0.0 0.0 
1361.10985856 701.899 -1498.50638371 0.0157703499806 39.5775114206 4.60594344728 -3.89247 -0.109933 -2.08368 -3.89006 0.0228506 -2.08645 -3.88759 0.598025 -1.99908 -3.89306 0.274874 -2.0684 10.0619 9.83548 1.51564 10.3824 14.739 1.86178 -0.0 0.0 -0.0 10.8491 -4.88563 21.6436 -2.79815 -33.1494 46.3987 2.67494 -52.9501 1.33241 9.30692 0.233765 -1.16458 -0.534785 -13.7358 -9.47488 -0.0 0.0 -0.0 10.4425 -9.43868 -19.7557 -40.0446 34.7077 -41.1754 0.391028 10.9628 -0.0375239 38.6696 0.28188 4.83923 1.34462 10.661 -4.54682 0.0 0.0 0.0 1.43696 44.5065 -19.1668 -23.9244 0.228444 3.63769 11.7407 -27.8789 -2.04013 32.2006 -0.0 -0.0 -0.0 0.0 -0.0 23.363 3.81771 -7.03476 3.12982 0.141482 0.45934 -24.5543 -8.52764 -3.69311 14.4636 -0.0 -0.0 0.0 0.0 0.0 
1345.80313831 702.504 -1523.17568763 0.191708672527 40.4392324911 3.86625857076 -4.15567 -0.111915 -1.95011 -4.15355 0.0123783 -1.95328 -4.15094 0.559768 -1.87143 -4.15573 0.257245 -1.93631 11.1493 10.4654 2.11927 11.4865 15.0216 2.55406 -0.0 0.0 -0.0 10.6086 -3.50512 21.0821 -3.58464 -32.3201 46.9388 2.58919 -52.0491 1.26437 9.34838 0.23438 -1.16984 -0.405207 -14.8375 -9.06012 -0.0 0.0 -0.0 10.4826 -8.60079 -19.9283 -39.5869 36.0688 -41.9368 0.348362 9.79122 -0.0298384 38.3677 0.267093 4.80356 1.45219 9.49415 -5.78003 0.0 0.0 0.0 0.348806 43.1187 -19.7027 -23.9955 0.226848 3.64849 11.3084 -28.7093 -1.98972 31.3351 -0.0 -0.0 -0.0 0.0 -0.0 23.3112 3.72859 -6.93584 -0.411871 -0.01674 -0.0609891 -22.461 -10.2972 -3.37976 14.9832 -0.0 -0.0 0.0 0.0 0.0 
1346.33913198 702.504 -1523.46517583 0.189916921813 39.8007831916 3.86903906231 -4.15567 -0.111915 -1.95011 -4.15355 0.0123783 -1.95328 -4.15094 0.559768 -1.87143 -4.15573 0.257245 -1.93631 11.1493 10.4654 2.11927 11.4865 15.0216 2.55406 -0.0 0.0 -0.0 10.6086 -3.50512 21.0821 -3.58464 -32.3201 46.9388 2.58919 -52.0491 1.26437 9.34838 0.23438 -1.16984 -0.405207 -14.8375 -9.06012 -0.0 0.0 -0.0 10.4826 -8.60079 -19.9283 -39.5869 36.0688 -41.9368 0.348362 9.79122 -0.0298384 38.3677 0.267093 4.80356 1.45219 9.49415 -5.78003 0.0 0.0 0.0 0.348806 43.1187 -19.7027 -23.9955 0.226848 3.64849 11.3084 -28.7093 -1.98972 31.3351 -0.0 -0.0 -0.0 0.0 -0.0 23.3112 3.72859 -6.93584 -0.411871 -0.01674 -0.0609891 -22.461 -10.2972 -3.37976 14.9832 -0.0 -0.0 0.0 0.0 0.0 
1323.30364797 711.56 -1567.37465276 0.0230803832743 41.4480820719 4.3622420682 -4.16599 -0.143799 -1.91897 -4.16394 -0.0214218 -1.92423 -4.1602 0.519454 -1.85294 -4.16492 0.220354 -1.9117 12.8162 10.9157 3.62444 13.097 14.0193 4.41114 -0.0 0.0 -0.0 10.4199 -3.44763 20.6777 -9.58279 -29.8483 45.726 2.18408 -47.2474 0.95537 7.72407 0.207417 -0.964118 -0.491322 -13.8754 -9.23808 -0.0 0.0 -0.0 10.634 -7.95289 -20.2929 -37.1108 38.5056 -42.6566 0.362741 10.187 -0.0323325 37.4016 0.221058 4.68894 1.33094 6.82326 -6.09928 0.0 0.0 0.0 -1.43236 43.3424 -19.3627 -21.7254 0.271148 3.30296 10.5825 -26.578 -1.81926 30.0656 -0.0 -0.0 -0.0 0.0 -0.0 22.4343 4.85214 -8.47498 -4.6285 -0.162705 -0.691509 -15.2755 -11.9354 -2.29384 15.6844 -0.0 -0.0 0.0 0.0 0.0 
1319.81209503 710.261 -1592.86626687 0.768698187472 41.3226833597 4.78748106348 -4.10401 -0.146577 -2.00258 -4.10178 -0.0188763 -2.00785 -4.09787 0.543279 -1.93307 -4.10301 0.231232 -1.99459 12.3661 11.9962 3.72281 12.7255 15.7578 4.50763 -0.0 0.0 -0.0 10.6234 -3.45205 21.1118 -11.6683 -28.2994 44.9087 1.73006 -40.5937 0.639903 8.41061 0.219525 -1.05098 -0.130146 -13.5491 -6.64788 -0.0 0.0 -0.0 10.7022 -7.71411 -20.4519 -35.2144 41.5031 -44.1488 0.331233 9.31843 -0.026995 36.3028 0.171057 4.55765 1.02593 6.8632 -4.01577 0.0 0.0 0.0 -0.795814 38.6609 -20.1776 -23.0804 0.246354 3.50941 9.27724 -23.1349 -1.54296 30.0819 -0.0 -0.0 -0.0 0.0 -0.0 21.5137 4.55827 -11.0146 -6.08606 -0.20231 -0.911683 -14.2149 -10.1422 -2.12995 13.2698 -0.0 -0.0 0.0 0.0 0.0 
1306.41650277 707.673 -1617.21861632 1.47060577915 40.4839483931 4.30259774251 -4.10862 -0.0459237 -1.85063 -4.10671 0.0719092 -1.8498 -4.10646 0.586528 -1.75586 -4.11063 0.301911 -1.82642 11.5368 14.1611 5.33848 11.9848 17.9492 6.49174 -0.0 0.0 -0.0 10.3961 -2.68605 20.6002 -13.756 -27.183 44.9296 1.42996 -35.3102 0.455146 7.90176 0.210651 -0.986586 0.295327 -13.3452 -3.68695 -0.0 0.0 -0.0 10.4191 -6.04372 -20.0696 -31.5242 43.9554 -46.6069 0.312959 8.81265 -0.0241158 35.7823 0.148255 4.49514 1.00789 5.5172 -4.46201 0.0 0.0 0.0 -0.236954 33.8194 -21.1516 -29.0136 0.0805819 4.40447 9.11048 -19.4287 -1.46243 30.6271 -0.0 -0.0 -0.0 0.0 -0.0 20.4851 5.87179 -12.2032 -9.06359 -0.265735 -1.36415 -5.29517 -6.57079 -0.784057 14.6442 -0.0 -0.0 0.0 0.0 0.0 
1287.46505616 707.538 -1638.64085809 3.07838936714 39.3782418164 3.36284548212 -4.20951 -0.0832244 -1.75145 -4.2078 0.0283764 -1.7532 -4.20624 0.52059 -1.67439 -4.21006 0.249661 -1.73557 11.6564 14.9363 3.23333 12.3521 21.1526 3.7966 -0.0 0.0 -0.0 9.92214 -2.00984 19.5775 -16.6971 -26.7989 45.8208 1.26125 -31.9952 0.361614 7.47264 0.202722 -0.932344 0.761356 -13.7071 -0.705571 -0.0 0.0 -0.0 10.2761 -3.8776 -19.9719 -30.1379 45.4121 -47.0267 0.331444 9.32427 -0.0270292 35.1301 0.120488 4.41652 1.09073 5.20977 -5.15175 0.0 0.0 0.0 -0.614739 30.5156 -21.1845 -33.7786 -0.119112 5.10821 8.42211 -14.7398 -1.30469 30.1918 -0.0 -0.0 -0.0 0.0 -0.0 19.6291 7.39501 -13.2391 -13.5747 -0.316841 -2.05426 0.982063 -6.71426 0.143435 15.1065 -0.0 -0.0 0.0 0.0 0.0 
1273.32064767 703.186 -1663.09911058 3.82496151571 39.1501453326 3.74393139454 -4.36315 -0.116477 -1.66794 -4.36161 -0.0101212 -1.67197 -4.35897 0.465047 -1.60604 -4.36251 0.205603 -1.65931 8.76915 15.5097 5.25107 9.35679 21.0273 6.41149 -0.0 0.0 -0.0 9.72496 -2.20082 19.1715 -17.9799 -25.2083 46.6651 0.999452 -26.3394 0.233868 6.95876 0.192693 -0.867466 1.04498 -14.1663 1.00131 -0.0 0.0 -0.0 9.87551 -3.03501 -19.2279 -27.1897 47.3846 -48.4224 0.457334 12.7651 -0.0511573 35.6155 0.141066 4.47505 0.944847 4.20512 -4.58619 0.0 0.0 0.0 -2.20772 22.4752 -19.2882 -38.5186 -0.375222 5.78978 8.49228 -8.80785 -1.26722 31.1175 -0.0 -0.0 -0.0 0.0 -0.0 18.9529 11.7453 -15.6051 -15.5632 -0.322088 -2.3593 7.71577 -7.27484 1.1052 17.226 -0.0 -0.0 0.0 0.0 0.0 
1280.37774891 703.186 -1666.64163823 3.71509495812 37.0229628162 3.92200931146 -4.36315 -0.116477 -1.66794 -4.36161 -0.0101212 -1.67197 -4.35897 0.465047 -1.60604 -4.36251 0.205603 -1.65931 8.76915 15.5097 5.25107 9.35679 21.0273 6.41149 -0.0 0.0 -0.0 9.72496 -2.20082 19.1715 -17.9799 -25.2083 46.6651 0.999452 -26.3394 0.233868 6.95876 0.192693 -0.867466 1.04498 -14.1663 1.00131 -0.0 0.0 -0.0 9.87551 -3.03501 -19.2279 -27.1897 47.3846 -48.4224 0.457334 12.7651 -0.0511573 35.6155 0.141066 4.47505 0.944847 4.20512 -4.58619 0.0 0.0 0.0 -2.20772 22.4752 -19.2882 -38.5186 -0.375222 5.78978 8.49228 -8.80785 -1.26722 31.1175 -0.0 -0.0 -0.0 0.0 -0.0 18.9529 11.7453 -15.6051 -15.5632 -0.322088 -2.3593 7.71577 -7.27484 1.1052 17.226 -0.0 -0.0 0.0 0.0 0.0 
1253.73267425 705.79 -1696.86051705 6.10063440461 36.7840752116 2.98826068591 -4.0771 0.00456361 -1.63715 -4.07562 0.108716 -1.63354 -4.0768 0.560547 -1.53823 -4.07997 0.310611 -1.60743 7.9212 16.3439 3.24067 8.74646 24.5024 4.01255 -0.0 0.0 -0.0 9.30617 0.864825 18.1955 -23.4766 -26.0556 47.8393 0.785188 -21.2539 0.147328 5.66867 0.164955 -0.705006 1.43036 -13.034 4.09105 -0.0 0.0 -0.0 10.2554 0.774384 -20.2224 -22.0354 47.7217 -50.1327 0.489938 13.6421 -0.0586047 36.4423 0.177266 4.57437 0.754337 2.86403 -3.86057 0.0 0.0 0.0 -2.64203 8.77703 -16.3814 -46.6595 -0.943842 6.90413 2.62853 1.74095 -0.384646 31.1235 -0.0 -0.0 -0.0 0.0 -0.0 15.7807 20.1412 -18.4087 -14.1113 -0.3193 -2.13656 9.72809 -12.1823 1.38791 18.519 -0.0 -0.0 0.0 0.0 0.0 
1240.67892348 711.885 -1716.70853548 5.96591910709 35.7833879436 3.07276328795 -3.82192 -0.168763 -1.52192 -3.82063 -0.0715885 -1.52957 -3.81683 0.351551 -1.49036 -3.81991 0.111793 -1.52716 6.5521 16.7144 3.25498 7.38814 25.5027 4.16597 -0.0 0.0 -0.0 8.85058 4.22597 17.1262 -26.3101 -26.6758 48.8792 0.682642 -18.6836 0.1123 4.56418 0.138303 -0.566435 1.57555 -12.8008 5.17382 -0.0 0.0 -0.0 10.6502 3.08174 -21.1554 -20.0916 47.3499 -50.2305 0.465978 12.9982 -0.0530845 36.6875 0.188277 4.60372 0.651111 2.89208 -3.15389 0.0 0.0 0.0 -1.11683 1.20409 -14.663 -49.3203 -1.16349 7.24982 -1.5825 5.34279 0.232776 30.5379 -0.0 -0.0 -0.0 0.0 -0.0 13.4641 23.8565 -18.5152 -11.644 -0.301622 -1.75844 10.1139 -12.0618 1.44086 18.124 -0.0 -0.0 0.0 0.0 0.0 
1214.56862221 721.181 -1734.35852355 5.9517557757 34.9918670968 2.65505433132 -3.7477 -0.171943 -1.37058 -3.74666 -0.0843899 -1.37874 -3.74309 0.296033 -1.34923 -3.74562 0.0792534 -1.37904 2.04593 16.941 4.21899 2.67847 26.3083 5.87495 -0.0 0.0 -0.0 8.21676 7.1196 15.7532 -27.3278 -27.4959 50.8929 0.567002 -15.6889 0.0781187 3.84419 0.119493 -0.476387 1.79489 -12.4286 6.82271 -0.0 0.0 -0.0 10.9232 4.40554 -21.7889 -18.4504 47.312 -50.2647 0.501174 13.9429 -0.0612834 36.6886 0.188323 4.60385 0.545706 2.87955 -2.44996 0.0 0.0 0.0 3.31875 -1.43381 -14.3627 -51.4402 -1.3499 7.51784 -5.91958 10.3289 0.877344 29.8605 -0.0 -0.0 -0.0 0.0 -0.0 10.9374 25.5671 -17.9808 -10.0822 -0.282023 -1.5196 8.28409 -14.6024 1.19223 17.2082 -0.0 -0.0 0.0 0.0 0.0 
1201.60668958 722.768 -1753.63085408 5.18471222128 35.456006919 3.03099140912 -3.61622 -0.200786 -1.43586 -3.61508 -0.109022 -1.44572 -3.61065 0.287381 -1.42107 -3.61346 0.0593685 -1.44861 4.20046 16.9404 3.30094 4.97677 26.5035 4.52117 -0.0 0.0 -0.0 7.92978 9.03486 15.1115 -29.5471 -27.8676 51.1295 0.570039 -15.7688 0.078942 3.25664 0.103305 -0.403081 1.73558 -12.1628 6.53818 -0.0 0.0 -0.0 11.2249 5.26235 -22.4714 -17.2677 47.1833 -50.4 0.495341 13.7869 -0.0598858 37.0317 0.203943 4.64484 0.556636 3.38487 -2.31198 0.0 0.0 0.0 5.3711 -5.86476 -13.5215 -51.5436 -1.35924 7.53073 -7.61648 9.38438 1.13163 29.5423 -0.0 -0.0 -0.0 0.0 -0.0 9.72108 28.391 -18.0839 -8.79123 -0.260912 -1.32264 10.7047 -11.9503 1.52174 17.7235 -0.0 -0.0 0.0 0.0 0.0 
1192.06659191 723.881 -1768.03623337 4.78938201103 35.0383611037 3.21032960367 -3.06523 -0.214133 -1.45566 -3.06405 -0.121082 -1.46633 -3.05938 0.267453 -1.44682 -3.0623 0.0356251 -1.47089 3.58342 17.5298 4.02882 4.35424 27.0816 5.45394 -0.0 0.0 -0.0 7.67011 9.61687 14.6054 -31.3138 -28.0249 52.0541 0.490957 -13.6695 0.0588452 2.84755 0.0915897 -0.352138 1.84751 -11.7096 7.49779 -0.0 0.0 -0.0 11.3767 6.00732 -22.8252 -16.3644 47.3068 -49.9066 0.562862 15.58 -0.077003 37.4586 0.223717 4.69571 0.543938 3.71221 -2.08924 0.0 0.0 0.0 5.60909 -8.45891 -12.1013 -51.8545 -1.38749 7.56941 -9.66384 10.4868 1.44078 29.2561 -0.0 -0.0 -0.0 0.0 -0.0 8.43554 29.0691 -17.8744 -7.98436 -0.245465 -1.19978 10.8496 -12.5503 1.54281 17.5983 -0.0 -0.0 0.0 0.0 0.0 
